HIERARCHY
ROOT SpineBase
{
  OFFSET 0.000000 0.000000 0.000000
  CHANNELS 6 Xposition Yposition Zposition Zrotation Xrotation Yrotation
  JOINT SpineMid
  {
    OFFSET 0.000000 29.573879 0.000000
    CHANNELS 3 Zrotation Xrotation Yrotation
    JOINT SpineShoulder
    {
      OFFSET -0.120875 22.043004 -0.783766
      CHANNELS 3 Zrotation Xrotation Yrotation
      JOINT Neck
      {
        OFFSET -0.051899 7.312997 -0.581774
        CHANNELS 3 Zrotation Xrotation Yrotation
        JOINT Head
        {
          OFFSET -2.897848 13.815888 0.918057
          CHANNELS 3 Zrotation Xrotation Yrotation
          End Site
          {
            OFFSET 0 0 0
          }
        }
      }
      JOINT ShoulderLeft
      {
        OFFSET -17.247375 -4.215596 5.251579
        CHANNELS 3 Zrotation Xrotation Yrotation
        JOINT ElbowLeft
        {
          OFFSET -0.893338 -25.597951 -0.679627
          CHANNELS 3 Zrotation Xrotation Yrotation
          JOINT WristLeft
          {
            OFFSET 0.282700 -21.868084 -9.595116
            CHANNELS 3 Zrotation Xrotation Yrotation
            JOINT HandLeft
            {
              OFFSET 0.576080 -4.533060 -1.869135
              CHANNELS 3 Zrotation Xrotation Yrotation
              JOINT HandTipLeft
              {
                OFFSET 2.305754 -8.367698 -2.081045
                CHANNELS 3 Zrotation Xrotation Yrotation
                End Site
                {
                  OFFSET 0 0 0
                }
              }
              JOINT ThumbLeft
              {
                OFFSET 4.334174 -0.374484 -4.563867
                CHANNELS 3 Zrotation Xrotation Yrotation
                End Site
                {
                  OFFSET 0 0 0
                }
              }
            }
          }
        }
      }
      JOINT ShoulderRight
      {
        OFFSET 13.979599 -3.381487 -7.637107
        CHANNELS 3 Zrotation Xrotation Yrotation
        JOINT ElbowRight
        {
          OFFSET 2.567286 -24.921292 -2.584958
          CHANNELS 3 Zrotation Xrotation Yrotation
          JOINT WristRight
          {
            OFFSET -5.027596 -21.187981 -6.114574
            CHANNELS 3 Zrotation Xrotation Yrotation
            JOINT HandRight
            {
              OFFSET -1.896313 -3.542273 0.197709
              CHANNELS 3 Zrotation Xrotation Yrotation
              JOINT HandTipRight
              {
                OFFSET -0.850088 -4.611732 -1.314771
                CHANNELS 3 Zrotation Xrotation Yrotation
                End Site
                {
                  OFFSET 0 0 0
                }
              }
              JOINT ThumbRight
              {
                OFFSET 1.708500 -1.905410 -3.509894
                CHANNELS 3 Zrotation Xrotation Yrotation
                End Site
                {
                  OFFSET 0 0 0
                }
              }
            }
          }
        }
      }
    }
  }
  JOINT HipLeft
  {
    OFFSET -6.900771 0.809072 -1.192208
    CHANNELS 3 Zrotation Xrotation Yrotation
    JOINT KneeLeft
    {
      OFFSET -2.081739 -28.402824 -1.826381
      CHANNELS 3 Zrotation Xrotation Yrotation
      JOINT AnkleLeft
      {
        OFFSET -0.836223 -30.614920 1.776002
        CHANNELS 3 Zrotation Xrotation Yrotation
        JOINT FootLeft
        {
          OFFSET -3.491182 -3.591529 -12.525552
          CHANNELS 3 Zrotation Xrotation Yrotation
          End Site
          {
            OFFSET 0 0 0
          }
        }
      }
    }
  }
  JOINT HipRight
  {
    OFFSET 7.015300 0.920624 -5.626081
    CHANNELS 3 Zrotation Xrotation Yrotation
    JOINT KneeRight
    {
      OFFSET 6.812959 -27.779093 3.374640
      CHANNELS 3 Zrotation Xrotation Yrotation
      JOINT AnkleRight
      {
        OFFSET 3.676592 -32.322923 13.179483
        CHANNELS 3 Zrotation Xrotation Yrotation
        JOINT FootRight
        {
          OFFSET -0.238183 -6.750566 -6.787047
          CHANNELS 3 Zrotation Xrotation Yrotation
          End Site
          {
            OFFSET 0 0 0
          }
        }
      }
    }
  }
}
MOTION
Frames: 11
Frame Time: 0.033333
-1.080880 56.559470 386.444361 37.256682 -22.266177 22.350411 -2.764299 0.494647 -13.017155 -0.887595 0.798069 1.309102 26.042711 11.505067 -19.548067 0.000000 0.000000 0.000000 -22.706953 -25.869683 6.448192 -3.619104 32.282018 -1.615418 -64.917810 -36.761691 18.587133 -13.738973 43.683767 49.487131 0.000000 0.000000 0.000000 0.000000 0.000000 0.000000 -75.455350 14.146150 23.730404 71.241171 -45.982961 13.727134 10.766173 29.852753 -7.396008 -20.126409 -13.453394 -3.619882 0.000000 0.000000 0.000000 0.000000 0.000000 0.000000 -55.890269 24.224044 7.394215 67.237429 13.120643 -8.330117 -65.842591 -5.211229 47.236246 0.000000 0.000000 0.000000 -81.129716 64.900323 41.195066 21.296064 -34.305548 -0.302235 2.943812 35.762234 -1.903769 0.000000 0.000000 0.000000
-1.591647 56.536864 385.282197 33.677244 -23.380992 14.767274 -2.631972 0.137239 -6.029903 -0.572891 0.852443 1.120861 30.765024 9.805622 -20.423249 0.000000 0.000000 0.000000 -19.435086 -24.111055 5.934134 -11.239893 30.306512 6.076404 -57.546427 -38.352631 10.250380 -24.210834 26.640840 42.262354 0.000000 0.000000 0.000000 0.000000 0.000000 0.000000 -73.154247 21.907857 27.400779 72.703163 -53.498625 23.153955 12.643193 29.820444 -8.364396 -18.389385 -13.645191 -4.226689 0.000000 0.000000 0.000000 0.000000 0.000000 0.000000 -52.622189 17.760282 10.560305 83.106072 9.401317 -9.476949 -76.238385 -10.268133 47.643100 0.000000 0.000000 0.000000 -74.610809 60.845730 40.833464 11.229498 -34.959750 -7.869559 10.609048 40.256373 -3.814725 0.000000 0.000000 0.000000
-2.030472 56.697841 383.665930 30.315312 -24.042155 10.313628 -2.218872 0.006223 -2.362107 -0.165916 0.861181 0.949714 33.560648 7.003701 -20.238264 0.000000 0.000000 0.000000 -17.186111 -21.938725 5.338036 -19.018062 26.988988 13.925668 -56.915604 -27.608976 18.237329 -20.425785 11.089868 7.000296 0.000000 0.000000 0.000000 0.000000 0.000000 0.000000 -69.281115 30.386187 29.724719 69.573108 -61.917345 32.399785 16.280715 29.778777 -11.011998 -20.614284 -12.804418 -3.041389 0.000000 0.000000 0.000000 0.000000 0.000000 0.000000 -48.987224 15.245590 12.121299 110.164211 2.273601 -6.413303 -88.884125 -23.127690 47.752154 0.000000 0.000000 0.000000 -66.048526 58.608126 37.701098 3.522319 -32.763788 -12.821832 13.144853 39.811790 -2.554331 0.000000 0.000000 0.000000
-2.479479 56.967153 381.813979 26.905612 -24.603011 1.162721 -2.142349 -0.515839 6.061889 -0.407556 0.705716 0.895824 36.105055 5.287000 -20.209593 0.000000 0.000000 0.000000 -13.751668 -19.686172 4.636336 -27.454236 22.766144 22.134311 -52.159729 -16.508266 23.916563 -24.742366 3.298554 -13.166474 0.000000 0.000000 0.000000 0.000000 0.000000 0.000000 -61.512109 36.360243 28.913694 56.757067 -68.792459 32.992036 17.646446 31.916648 -13.674184 -20.694517 -16.225381 -0.355791 0.000000 0.000000 0.000000 0.000000 0.000000 0.000000 -44.434496 7.750308 16.700372 122.637518 -3.902148 -2.749829 -93.349573 -26.626098 46.169208 0.000000 0.000000 0.000000 -60.814395 53.148934 39.635148 -2.744374 -30.408340 -15.712163 2.281598 29.155068 9.761384 0.000000 0.000000 0.000000
-2.589577 57.402878 379.799839 23.662124 -25.227937 1.547734 -1.444288 -0.275892 4.790738 -0.457999 0.628302 0.826303 37.735365 3.684452 -19.996545 0.000000 0.000000 0.000000 -11.498549 -16.922415 3.966170 -33.895544 18.839657 27.803300 -50.406291 -16.463394 20.489018 -26.212077 -0.738113 -31.811348 0.000000 0.000000 0.000000 0.000000 0.000000 0.000000 -53.469268 40.383783 26.180504 26.392616 -73.491317 17.553227 3.446252 40.529108 -7.395066 -7.073631 -20.141735 2.123047 0.000000 0.000000 0.000000 0.000000 0.000000 0.000000 -39.738022 10.182238 15.270935 121.671455 -6.970389 2.284893 -96.025798 -18.411303 45.111160 0.000000 0.000000 0.000000 -50.278542 52.364584 32.639959 -2.894092 -25.365044 -13.522787 -11.537222 7.593184 22.093490 0.000000 0.000000 0.000000
-2.444715 58.001838 377.852070 21.391820 -25.255490 1.373246 -0.638589 -0.344911 4.229768 -0.866473 0.389598 0.876810 37.931478 1.926768 -19.418058 0.000000 0.000000 0.000000 -9.361127 -14.153994 3.324939 -40.076897 17.636326 32.451739 -47.451028 -2.023225 30.371009 -36.138597 -5.016400 -59.407829 0.000000 0.000000 0.000000 0.000000 0.000000 0.000000 -52.674776 45.198741 28.214975 0.734011 -75.598484 -1.219273 -0.731303 41.217357 -5.039692 -2.920710 -22.484320 3.886888 0.000000 0.000000 0.000000 0.000000 0.000000 0.000000 -36.703509 11.594710 14.345702 113.563857 -11.780657 8.633121 -93.366131 -4.224599 38.952525 0.000000 0.000000 0.000000 -43.644775 50.703162 28.104466 -2.193301 -21.539191 -11.471972 -40.372636 -17.402210 44.655335 0.000000 0.000000 0.000000
-2.223899 58.746514 376.451048 19.396060 -26.287008 2.618838 -0.755187 -0.300955 2.648417 -0.597609 0.847171 0.689729 37.969069 0.714867 -19.049420 0.000000 0.000000 0.000000 -7.116263 -12.614805 2.826023 -42.956927 16.477624 34.288536 -52.512339 9.755285 46.804813 -39.131217 -3.205230 -76.067994 0.000000 0.000000 0.000000 0.000000 0.000000 0.000000 -59.796347 51.044975 36.919894 -25.015150 -78.297645 -26.097992 14.717463 37.888250 -15.477978 -14.999770 -23.571134 5.531992 0.000000 0.000000 0.000000 0.000000 0.000000 0.000000 -32.767360 16.822360 12.488862 90.409127 -16.967245 12.576554 -73.963575 8.068243 25.259669 0.000000 0.000000 0.000000 -39.772314 51.067753 25.220694 -0.531150 -18.361296 -9.595622 -42.998129 -24.380926 43.605088 0.000000 0.000000 0.000000
-1.244112 58.863657 374.951100 18.445354 -26.894042 8.787910 -0.737024 -0.030571 -3.713032 -0.917320 0.312526 0.780550 37.863288 2.152069 -19.600530 0.000000 0.000000 0.000000 -6.214907 -10.956825 2.565855 -44.145571 17.068417 35.258628 -51.541404 11.741050 46.659254 -38.841292 -1.361184 -66.543527 0.000000 0.000000 0.000000 0.000000 0.000000 0.000000 -68.340451 51.601221 45.202299 -24.460058 -79.969435 -30.277753 27.118979 29.964044 -21.031421 -27.517251 -19.204118 5.809657 0.000000 0.000000 0.000000 0.000000 0.000000 0.000000 -28.712376 26.380262 6.296268 57.561662 -18.668499 10.082113 -46.404936 18.775847 10.440399 0.000000 0.000000 0.000000 -31.039387 49.129486 13.534225 -0.680756 -11.762475 -8.379081 -39.116796 -24.160481 42.905047 0.000000 0.000000 0.000000
0.356224 57.520040 373.774752 17.779199 -26.969539 14.691665 -0.911352 0.299288 -9.773548 -0.919235 -0.015176 0.784138 37.178454 2.656894 -19.396463 0.000000 0.000000 0.000000 -7.967751 -7.974876 2.595797 -41.794720 15.262986 33.417170 -43.711890 5.728857 32.883230 -28.794507 5.948438 -12.638283 0.000000 0.000000 0.000000 0.000000 0.000000 0.000000 -80.396722 53.378582 57.147887 -50.416850 -82.751742 -59.974900 29.145977 26.046888 -20.592686 -31.164791 -18.554891 6.236830 0.000000 0.000000 0.000000 0.000000 0.000000 0.000000 -23.937233 35.561976 -0.570201 28.277004 -15.479503 4.804881 -24.669438 25.076652 8.515978 0.000000 0.000000 0.000000 -26.864189 45.234337 4.112470 -1.903138 -4.594749 -7.907545 -23.326229 -26.063800 37.052577 0.000000 0.000000 0.000000
1.415643 55.875804 372.324491 16.651362 -26.759213 17.077183 -0.524350 0.360157 -12.592280 -0.893129 -0.265008 0.777511 35.383574 1.937460 -18.493312 0.000000 0.000000 0.000000 -12.280208 -4.402977 3.263576 -36.077906 13.415753 29.717050 -30.914762 -10.218969 6.810294 -32.550307 28.541082 53.277600 0.000000 0.000000 0.000000 0.000000 0.000000 0.000000 -90.029885 50.988372 65.260224 -67.654727 -84.882002 -83.023133 27.937320 23.797497 -18.668783 -31.444236 -16.824652 6.337459 0.000000 0.000000 0.000000 0.000000 0.000000 0.000000 -18.757789 42.466699 -5.419705 14.847481 -13.455220 2.808152 -9.770159 17.412954 0.285821 0.000000 0.000000 0.000000 -26.266249 40.400667 -0.410234 -0.287628 1.091439 -5.553988 -25.801223 -20.955630 39.838927 0.000000 0.000000 0.000000
2.084173 53.376915 370.420759 15.267749 -25.691337 16.922074 -0.363163 0.108855 -12.981452 -1.076881 -0.304802 0.757149 35.816566 0.606984 -17.718051 0.000000 0.000000 0.000000 -15.494544 -0.130935 3.826476 -32.074118 9.586821 26.443950 -12.688052 -21.209779 -12.260568 -59.767457 10.141685 67.666635 0.000000 0.000000 0.000000 0.000000 0.000000 0.000000 -96.511839 49.776163 71.470967 -123.440497 -84.411188 -143.129980 26.756715 25.395514 -18.648683 -32.643416 -17.181250 6.666136 0.000000 0.000000 0.000000 0.000000 0.000000 0.000000 -10.109445 45.350224 -11.199141 1.898699 -12.810184 0.612867 0.927412 5.126734 -1.360084 0.000000 0.000000 0.000000 -25.605299 36.736482 -2.250578 -2.303827 1.420757 -6.239603 -18.286766 2.222541 38.134644 0.000000 0.000000 0.000000
